<?xml version="1.0" standalone="no"?>
<!DOCTYPE svg PUBLIC "-//W3C//DTD SVG 20010904//EN"
 "http://www.w3.org/TR/2001/REC-SVG-20010904/DTD/svg10.dtd">
<svg version="1.0" xmlns="http://www.w3.org/2000/svg"
 width="512.000000pt" height="512.000000pt" viewBox="0 0 512.000000 512.000000"
 preserveAspectRatio="xMidYMid meet">
<metadata>
Created by potrace 1.14, written by Peter Selinger 2001-2017
</metadata>
<g transform="translate(0.000000,512.000000) scale(0.100000,-0.100000)"
fill="#000000" stroke="none">
<path d="M2300 4921 c0 -135 -2 -152 -17 -158 -10 -4 -250 -106 -533 -228
l-514 -222 -62 -125 -63 -126 0 -148 c-1 -188 -2 -184 23 -194 12 -4 60 -49
108 -99 l86 -91 150 0 150 0 81 93 c44 52 86 94 93 94 28 0 200 15 219 18 11
2 59 6 107 9 80 5 163 14 203 21 14 3 109 -91 202 -199 l25 -28 -87 -72 c-47
-39 -240 -197 -428 -349 -188 -153 -367 -305 -397 -338 -144 -156 -247 -369
-275 -573 -20 -146 -22 -140 89 -306 l100 -150 -100 0 -100 0 0 -150 0 -150
101 0 c84 0 98 -2 87 -14 -7 -7 -44 -48 -83 -92 -38 -43 -77 -85 -85 -94 -8
-9 -49 -54 -90 -100 -41 -46 -84 -94 -96 -106 -54 -60 -90 -174 -81 -264 13
-150 130 -285 274 -319 l38 -9 -33 -1 c-23 -1 -49 -13 -80 -39 -26 -20 -55
-44 -65 -52 -11 -8 -24 -19 -31 -25 -6 -5 -32 -27 -59 -48 l-47 -38 0 -100 0
-99 1450 0 1451 0 -3 102 -3 101 -120 98 c-89 73 -128 98 -150 99 -26 1 -24 3
19 16 145 45 245 174 251 327 5 130 -24 188 -180 362 -38 43 -74 83 -80 89 -5
6 -50 55 -98 109 l-89 97 101 0 101 0 0 150 0 150 125 0 c69 0 125 4 125 8 0
5 -9 35 -19 68 -54 167 -112 484 -135 729 -22 244 -9 661 28 893 48 299 28
522 -69 772 -41 107 -62 147 -133 254 -58 88 -195 246 -244 281 -233 169 -369
235 -588 287 -67 16 -134 21 -317 25 l-233 5 0 -151z"/>
</g>
</svg>
